<svg id="Calque_1" data-name="Calque 1" xmlns="http://www.w3.org/2000/svg" viewBox="0 0 410.67 398.51"><defs><style>.cls-1{fill:#001000;}.cls-2{fill:#9e9e9e;}</style></defs><title>raven copie</title><path d="M257.9,319.62v-173c-19.89,39.48-58.69,72.06-108.71,93.41,58.09,24.6,104.71,108.36,108.71,190.34,4-82,50.62-165.74,108.72-190.34-49.16,15.4-88.66,44.33-108.72,79.54" transform="translate(-44.67 -31.92)"/><path class="cls-1" d="M311.53,158l-16.68,6.9a44.28,44.28,0,1,0,70.07-54.16l-30,12.45,20,3.72A27.19,27.19,0,0,1,311.53,158" transform="translate(-44.67 -31.92)"/><rect class="cls-2" x="374.22" y="93.57" width="11.99" height="11.99"/><rect class="cls-2" x="354.08" y="20.98" width="11.99" height="11.99"/><rect class="cls-2" x="321" y="32.97" width="15.29" height="15.29"/><rect class="cls-2" x="348.09" y="130.74" width="11.99" height="11.99"/><rect class="cls-2" x="250.19" y="89.29" width="10.28" height="10.28"/><rect class="cls-2" x="343.65" y="68.43" width="20.86" height="20.86"/><rect class="cls-2" x="369.23" y="197.38" width="11.99" height="11.99" transform="translate(533.93 -203.78) rotate(90)"/><rect class="cls-2" x="380.21" y="69.89" width="9.06" height="9.06"/><rect class="cls-2" x="380.22" y="18.34" width="5.86" height="5.86"/><rect class="cls-2" x="367.92" y="51.01" width="5.86" height="5.86"/><rect class="cls-2" x="394.59" y="32.98" width="5.86" height="5.86"/><rect class="cls-2" x="400.23" y="19.7" width="2.92" height="3.16"/><rect class="cls-2" x="398.16" y="6.52" width="2.92" height="3.16"/><rect class="cls-2" x="409.21" width="1.46" height="1.58"/><rect class="cls-2" x="292.2" y="55" width="11.99" height="11.99"/><rect class="cls-2" x="276.76" y="78.95" width="5.86" height="5.86"/><path class="cls-1" d="M188.47,158.61a27.19,27.19,0,0,1-43.39-31.09l20-3.72-30-12.46a44.29,44.29,0,1,0,70.07,54.17l-16.68-6.9" transform="translate(-44.67 -31.92)"/><rect class="cls-2" x="69.13" y="126.06" width="11.99" height="11.99" transform="translate(105.58 232.19) rotate(-180)"/><rect class="cls-2" x="89.26" y="53.47" width="11.99" height="11.99" transform="translate(145.85 87.01) rotate(-180)"/><rect class="cls-2" x="119.05" y="65.46" width="15.29" height="15.29" transform="translate(208.72 114.28) rotate(-180)"/><rect class="cls-2" x="95.26" y="163.23" width="11.99" height="11.99" transform="translate(157.84 306.52) rotate(-180)"/><rect class="cls-2" x="194.87" y="121.78" width="10.28" height="10.28" transform="translate(355.35 221.91) rotate(-180)"/><rect class="cls-2" x="90.82" y="100.91" width="20.86" height="20.86" transform="translate(157.84 190.77) rotate(-180)"/><rect class="cls-2" x="118.78" y="197.94" width="11.99" height="11.99" transform="translate(284.05 47.24) rotate(90)"/><rect class="cls-2" x="66.06" y="102.38" width="9.06" height="9.06" transform="translate(96.52 181.9) rotate(-180)"/><rect class="cls-2" x="69.25" y="50.83" width="5.86" height="5.86" transform="translate(99.7 75.61) rotate(-180)"/><rect class="cls-2" x="81.55" y="83.49" width="5.86" height="5.86" transform="translate(124.3 140.93) rotate(-180)"/><rect class="cls-2" x="54.88" y="65.46" width="5.86" height="5.86" transform="translate(70.97 104.87) rotate(-180)"/><rect class="cls-2" x="52.18" y="52.19" width="2.92" height="3.16" transform="translate(62.61 75.61) rotate(-180)"/><rect class="cls-2" x="54.25" y="39.01" width="2.92" height="3.16" transform="translate(66.76 49.25) rotate(-180)"/><rect class="cls-2" x="44.67" y="32.49" width="1.46" height="1.58" transform="translate(46.13 34.63) rotate(-180)"/><rect class="cls-2" x="151.15" y="87.49" width="11.99" height="11.99" transform="translate(269.62 155.04) rotate(-180)"/><rect class="cls-2" x="172.71" y="111.44" width="5.86" height="5.86" transform="translate(306.61 196.82) rotate(-180)"/><path d="M260.43,50.26c-43.69,0-81.26-6.58-98-16l98,73.2,97.94-73.2C341.68,43.68,304.11,50.26,260.43,50.26Z" transform="translate(-44.67 -31.92)"/></svg>