<?xml version="1.0" encoding="utf-8"?>
<!-- Generator: Adobe Illustrator 23.0.0, SVG Export Plug-In . SVG Version: 6.00 Build 0)  -->
<svg version="1.1" id="Calque_1" xmlns="http://www.w3.org/2000/svg" xmlns:xlink="http://www.w3.org/1999/xlink" x="0px" y="0px"
	 viewBox="0 0 841.89 595.28" style="enable-background:new 0 0 841.89 595.28;" xml:space="preserve">
<style type="text/css">
	.st0{fill:#B90000;}
	.st1{fill:#FFFFFF;}
	.st2{opacity:0.52;}
	.st3{opacity:0.15;fill:#FFFFFF;}
	.st4{fill:#FFFFFF;stroke:#333333;stroke-width:2;stroke-miterlimit:10;}
</style>
<rect width="841.89" height="595.28"/>
<g>
	<path class="st0" d="M484.36,215.6v57.6h-9.58v-23.98h-28.8v23.98h-9.58v-23.98l9.58-9.65h28.8V215.6H484.36z"/>
	<path class="st1" d="M514.53,263.56l-4.9,9.65h-10.66l28.8-57.6L547,254.05h-10.8l-8.42-16.92l-8.5,16.92L514.53,263.56z
		 M556.58,273.2h-10.73l-4.75-9.58h10.66L556.58,273.2z"/>
	<path class="st1" d="M569.25,264.71c-2.59-2.66-4.68-5.69-6.19-9.22c-1.51-3.53-2.3-7.2-2.3-11.09c0-3.96,0.79-7.7,2.3-11.23
		c1.51-3.46,3.6-6.48,6.19-9.07c2.66-2.66,5.69-4.68,9.22-6.19c3.46-1.51,7.2-2.3,11.16-2.3c3.96,0,7.71,0.72,11.16,2.23
		c3.46,1.51,6.55,3.6,9.22,6.26l-6.84,6.7c-3.82-3.74-8.35-5.54-13.54-5.54c-2.66,0-5.18,0.5-7.49,1.44
		c-2.38,1.01-4.39,2.38-6.12,4.18c-1.73,1.73-3.1,3.74-4.1,6.05c-1.01,2.38-1.51,4.82-1.51,7.49s0.5,5.11,1.51,7.49
		c1.01,2.3,2.38,4.32,4.18,6.05c1.73,1.8,3.75,3.17,6.05,4.18c2.38,0.94,4.82,1.44,7.49,1.44l11.16,7.42
		c-3.46,1.51-7.2,2.23-11.16,2.23c-3.96,0-7.7-0.79-11.16-2.3C574.93,269.39,571.91,267.3,569.25,264.71z"/>
	<path class="st1" d="M613.31,244.4l28.8,28.8h-13.54l-24.91-24.77l-4.03-3.96l4.03-4.03l24.91-24.84h13.54L613.31,244.4z
		 M603.66,240.44l24.91-24.84L603.66,240.44z M628.58,273.2l-24.91-24.77L628.58,273.2z"/>
	<path class="st0" d="M453.18,321.23c-4.68,0-8.64-1.66-11.88-4.9c-3.24-3.31-4.9-7.27-4.9-11.95c0-4.61,1.66-8.5,4.9-11.81
		s7.2-4.97,11.88-4.97v9.65c-1.01,0-1.94,0.14-2.81,0.5c-0.94,0.36-1.66,0.86-2.38,1.58c-0.65,0.65-1.15,1.44-1.51,2.3
		s-0.5,1.8-0.5,2.74c0,2.02,0.65,3.67,2.02,5.11c1.44,1.44,3.1,2.16,5.18,2.16h14.33c4.68,0,8.64,1.66,11.88,4.9
		c3.31,3.31,4.97,7.27,4.97,11.88s-1.66,8.57-4.97,11.88c-3.24,3.24-7.2,4.9-11.88,4.9v-9.65c1.01,0,1.94-0.14,2.81-0.5
		c0.94-0.36,1.73-0.86,2.38-1.51c0.65-0.65,1.15-1.37,1.51-2.3c0.36-0.86,0.58-1.8,0.58-2.81c0-1.94-0.79-3.6-2.16-5.04
		c-1.44-1.44-3.1-2.16-5.11-2.16H453.18z"/>
	<path class="st1" d="M527.06,287.6v9.65h-28.8l-9.58-9.65H527.06z M498.26,311.65h28.8v9.58h-28.8h-9.58v-9.58H498.26z
		 M498.26,335.56h28.8v9.65h-38.38v-0.79L498.26,335.56z"/>
	<path class="st1" d="M548.37,336.71c-2.59-2.66-4.68-5.69-6.19-9.22c-1.51-3.53-2.3-7.2-2.3-11.09c0-3.96,0.79-7.7,2.3-11.23
		c1.51-3.46,3.6-6.48,6.19-9.07c2.66-2.66,5.69-4.68,9.22-6.19c3.46-1.51,7.2-2.3,11.16-2.3c3.96,0,7.71,0.72,11.16,2.23
		c3.46,1.51,6.55,3.6,9.22,6.26l-6.84,6.7c-3.82-3.74-8.35-5.54-13.54-5.54c-2.66,0-5.18,0.5-7.49,1.44
		c-2.38,1.01-4.39,2.38-6.12,4.18c-1.73,1.73-3.1,3.74-4.1,6.05c-1.01,2.38-1.51,4.82-1.51,7.49s0.5,5.11,1.51,7.49
		c1.01,2.3,2.38,4.32,4.18,6.05c1.73,1.8,3.75,3.17,6.05,4.18c2.38,0.94,4.82,1.44,7.49,1.44l11.16,7.42
		c-3.46,1.51-7.2,2.23-11.16,2.23c-3.96,0-7.7-0.79-11.16-2.3C554.06,341.39,551.03,339.3,548.37,336.71z"/>
	<path class="st1" d="M645.06,321.23c0,6.63-2.3,12.31-7.06,16.99c-4.68,4.68-10.44,6.98-16.99,6.98s-12.24-2.3-16.92-6.98
		s-6.98-10.44-6.98-16.99V287.6h9.58v33.63c0,3.96,1.37,7.34,4.1,10.08c2.81,2.88,6.26,4.25,10.22,4.25c3.96,0,7.34-1.44,10.15-4.25
		c2.81-2.81,4.32-6.19,4.32-10.08H645.06z"/>
	<path class="st0" d="M469.03,396.54l11.81,20.67h-11.02l-16.71-28.87l8.57,0.07c2.59,0,4.82-0.94,6.7-2.81
		c1.94-1.87,2.88-4.18,2.88-6.84c0-2.59-0.94-4.82-2.88-6.7c-1.87-1.87-4.1-2.81-6.7-2.81h-19.23l-1.08-1.08l-4.97-8.57h25.27
		c5.26,0,9.79,1.87,13.54,5.62c3.75,3.82,5.62,8.28,5.62,13.54c0,4.03-1.08,7.63-3.38,10.87
		C475.22,392.87,472.41,395.17,469.03,396.54z"/>
	<path class="st1" d="M527.13,359.6v9.65h-28.8l-9.58-9.65H527.13z M498.33,383.65h28.8v9.58h-28.8h-9.58v-9.58H498.33z
		 M498.33,407.56h28.8v9.65h-38.38v-0.79L498.33,407.56z"/>
	<path class="st1" d="M549.52,407.56l-9.58,9.65v-57.6l9.58,9.5V407.56z"/>
	<path class="st1" d="M563.99,359.6l28.87,28.8l28.8-28.8v57.6h-9.5v-34.42l-19.3,19.23l-28.87-29.02V359.6z"/>
	<path class="st1" d="M649.46,393.23c-4.68,0-8.64-1.66-11.88-4.9c-3.24-3.31-4.9-7.27-4.9-11.95c0-4.61,1.66-8.5,4.9-11.81
		s7.2-4.97,11.88-4.97v9.65c-1.01,0-1.94,0.14-2.81,0.5c-0.94,0.36-1.66,0.86-2.38,1.58c-0.65,0.65-1.15,1.44-1.51,2.3
		c-0.36,0.86-0.5,1.8-0.5,2.74c0,2.02,0.65,3.67,2.02,5.11c1.44,1.44,3.1,2.16,5.18,2.16h14.33c4.68,0,8.64,1.66,11.88,4.9
		c3.31,3.31,4.97,7.27,4.97,11.88s-1.66,8.57-4.97,11.88c-3.24,3.24-7.2,4.9-11.88,4.9v-9.65c1.01,0,1.94-0.14,2.81-0.5
		c0.94-0.36,1.73-0.86,2.38-1.51c0.65-0.65,1.15-1.37,1.51-2.3c0.36-0.86,0.58-1.8,0.58-2.81c0-1.94-0.79-3.6-2.16-5.04
		c-1.44-1.44-3.1-2.16-5.11-2.16H649.46z"/>
</g>
<g>
	<path class="st1" d="M171.78,427.8l1.46-3.65h2.4l-1.46,3.65h1.99l1.46-3.65h2.4l-1.49,3.65h1.56l-0.58,2.4h-1.92l-1.1,2.74h2.35
		l-0.58,2.4h-2.74l-1.49,3.67h-2.4l1.49-3.67h-2.02l-1.46,3.67h-2.4l1.46-3.67h-1.44l0.58-2.4h1.85l1.1-2.74h-2.28l0.58-2.4H171.78z
		 M172.12,432.94h1.99l1.1-2.74h-1.99L172.12,432.94z"/>
	<path class="st1" d="M197.6,429.41c1.13,1.08,1.68,2.42,1.68,4.01c0,0.77-0.14,1.49-0.43,2.16c-0.29,0.7-0.7,1.27-1.2,1.78
		c-0.5,0.53-1.1,0.91-1.8,1.22c-0.67,0.29-1.39,0.43-2.16,0.43h-7.2v-3.22h7.2c0.31,0,0.62-0.05,0.91-0.17
		c0.31-0.12,0.58-0.29,0.79-0.53c0.22-0.22,0.38-0.48,0.5-0.77s0.19-0.6,0.19-0.91c0-0.31-0.07-0.62-0.19-0.91s-0.29-0.55-0.5-0.77
		c-0.22-0.22-0.46-0.41-0.74-0.53c-0.31-0.12-0.62-0.19-0.96-0.19h-7.2h-3.19v-3.19h1.92h1.27h7.2c0.31,0,0.62-0.05,0.91-0.19
		c0.31-0.12,0.58-0.29,0.79-0.53c0.22-0.22,0.38-0.48,0.5-0.77s0.19-0.6,0.19-0.94c0-0.31-0.07-0.62-0.19-0.91s-0.29-0.55-0.5-0.77
		c-0.22-0.24-0.48-0.41-0.79-0.53c-0.29-0.12-0.6-0.17-0.91-0.17h-7.2l-3.19-3.22h10.39c0.74,0,1.46,0.14,2.16,0.43
		c0.7,0.31,1.3,0.7,1.8,1.22c0.5,0.5,0.91,1.08,1.2,1.78c0.29,0.67,0.43,1.39,0.43,2.16C199.28,426.96,198.73,428.3,197.6,429.41z"
		/>
	<path class="st1" d="M219.08,422.64c1.9,1.87,2.86,4.13,2.86,6.77c0,2.66-0.96,4.92-2.86,6.77c-1.87,1.87-4.1,2.83-6.77,2.83
		c-2.66,0-4.9-0.96-6.77-2.83c-1.87-1.87-2.83-4.1-2.83-6.77c0-2.64,0.96-4.9,2.83-6.77c1.85-1.87,4.1-2.83,6.77-2.83
		C214.98,419.81,217.21,420.77,219.08,422.64z M207.78,424.89c-1.25,1.25-1.85,2.76-1.85,4.51s0.6,3.29,1.85,4.54
		s2.78,1.85,4.54,1.85c1.75,0,3.26-0.6,4.51-1.85c1.27-1.27,1.87-2.78,1.87-4.54s-0.62-3.26-1.87-4.51s-2.76-1.87-4.51-1.87
		C210.56,423.02,209.05,423.62,207.78,424.89z"/>
	<path class="st1" d="M229.98,432.12l3.94,6.89h-3.67l-5.57-9.63l2.86,0.02c0.86,0,1.61-0.31,2.23-0.94
		c0.65-0.62,0.96-1.39,0.96-2.28c0-0.86-0.31-1.61-0.96-2.23c-0.62-0.63-1.37-0.94-2.23-0.94h-6.41l-0.36-0.36l-1.66-2.86h8.42
		c1.75,0,3.26,0.63,4.51,1.87c1.25,1.27,1.87,2.76,1.87,4.51c0,1.34-0.36,2.54-1.13,3.63C232.04,430.9,231.11,431.66,229.98,432.12z
		"/>
	<path class="st1" d="M250.74,419.81v19.15v0.02v0.02l-15.96-14.35v-4.85l12.77,11.5v-11.5H250.74z"/>
	<path class="st1" d="M270.01,419.81v3.22h-6.38v15.99h-3.22v-15.99v-3.22H270.01z"/>
	<path class="st1" d="M285.54,422.64c1.9,1.87,2.86,4.13,2.86,6.77c0,2.66-0.96,4.92-2.86,6.77c-1.87,1.87-4.1,2.83-6.77,2.83
		c-2.66,0-4.9-0.96-6.77-2.83c-1.87-1.87-2.83-4.1-2.83-6.77c0-2.64,0.96-4.9,2.83-6.77c1.85-1.87,4.1-2.83,6.77-2.83
		C281.44,419.81,283.67,420.77,285.54,422.64z M274.24,424.89c-1.25,1.25-1.85,2.76-1.85,4.51s0.6,3.29,1.85,4.54
		s2.78,1.85,4.54,1.85c1.75,0,3.26-0.6,4.51-1.85c1.27-1.27,1.87-2.78,1.87-4.54s-0.62-3.26-1.87-4.51s-2.76-1.87-4.51-1.87
		C277.02,423.02,275.51,423.62,274.24,424.89z"/>
	<path class="st1" d="M312.64,429.41c1.13,1.08,1.68,2.42,1.68,4.01c0,0.77-0.14,1.49-0.43,2.16c-0.29,0.7-0.7,1.27-1.2,1.78
		c-0.5,0.53-1.1,0.91-1.8,1.22c-0.67,0.29-1.39,0.43-2.16,0.43h-7.2v-3.22h7.2c0.31,0,0.62-0.05,0.91-0.17
		c0.31-0.12,0.58-0.29,0.79-0.53c0.22-0.22,0.38-0.48,0.5-0.77s0.19-0.6,0.19-0.91c0-0.31-0.07-0.62-0.19-0.91s-0.29-0.55-0.5-0.77
		c-0.22-0.22-0.46-0.41-0.74-0.53c-0.31-0.12-0.62-0.19-0.96-0.19h-7.2h-3.19v-3.19h1.92h1.27h7.2c0.31,0,0.62-0.05,0.91-0.19
		c0.31-0.12,0.58-0.29,0.79-0.53c0.22-0.22,0.38-0.48,0.5-0.77s0.19-0.6,0.19-0.94c0-0.31-0.07-0.62-0.19-0.91s-0.29-0.55-0.5-0.77
		c-0.22-0.24-0.48-0.41-0.79-0.53c-0.29-0.12-0.6-0.17-0.91-0.17h-7.2l-3.19-3.22h10.39c0.74,0,1.46,0.14,2.16,0.43
		c0.7,0.31,1.3,0.7,1.8,1.22c0.5,0.5,0.91,1.08,1.2,1.78c0.29,0.67,0.43,1.39,0.43,2.16C314.32,426.96,313.76,428.3,312.64,429.41z"
		/>
	<path class="st1" d="M327.68,419.81v3.22h-9.6l-3.19-3.22H327.68z M318.08,427.82h9.6v3.19h-9.6h-3.19v-3.19H318.08z
		 M318.08,435.79h9.6v3.22h-12.79v-0.26L318.08,435.79z"/>
	<path class="st0" d="M347.03,432.12l3.94,6.89h-3.67l-5.57-9.63l2.86,0.02c0.86,0,1.61-0.31,2.23-0.94
		c0.65-0.62,0.96-1.39,0.96-2.28c0-0.86-0.31-1.61-0.96-2.23c-0.62-0.63-1.37-0.94-2.23-0.94h-6.41l-0.36-0.36l-1.66-2.86h8.42
		c1.75,0,3.26,0.63,4.51,1.87c1.25,1.27,1.87,2.76,1.87,4.51c0,1.34-0.36,2.54-1.13,3.63C349.09,430.9,348.16,431.66,347.03,432.12z
		"/>
	<path class="st0" d="M370.79,422.64c1.9,1.87,2.86,4.13,2.86,6.77c0,2.66-0.96,4.92-2.86,6.77c-1.87,1.87-4.1,2.83-6.77,2.83
		s-4.9-0.96-6.77-2.83s-2.83-4.1-2.83-6.77c0-2.64,0.96-4.9,2.83-6.77c1.85-1.87,4.1-2.83,6.77-2.83S368.91,420.77,370.79,422.64z
		 M359.48,424.89c-1.25,1.25-1.85,2.76-1.85,4.51s0.6,3.29,1.85,4.54s2.78,1.85,4.54,1.85s3.26-0.6,4.51-1.85
		c1.27-1.27,1.87-2.78,1.87-4.54s-0.62-3.26-1.87-4.51s-2.76-1.87-4.51-1.87S360.75,423.62,359.48,424.89z"/>
	<path class="st0" d="M391.62,422.64c1.9,1.87,2.86,4.13,2.86,6.77c0,2.66-0.96,4.92-2.86,6.77c-1.87,1.87-4.1,2.83-6.77,2.83
		s-4.9-0.96-6.77-2.83s-2.83-4.1-2.83-6.77c0-2.64,0.96-4.9,2.83-6.77c1.85-1.87,4.1-2.83,6.77-2.83S389.75,420.77,391.62,422.64z
		 M380.31,424.89c-1.25,1.25-1.85,2.76-1.85,4.51s0.6,3.29,1.85,4.54s2.78,1.85,4.54,1.85s3.26-0.6,4.51-1.85
		c1.27-1.27,1.87-2.78,1.87-4.54s-0.62-3.26-1.87-4.51s-2.76-1.87-4.51-1.87S381.59,423.62,380.31,424.89z"/>
	<path class="st0" d="M408.01,419.81v3.22h-6.38v15.99h-3.22v-15.99v-3.22H408.01z"/>
</g>
<g>
	<g>
		<g>
			<path class="st1" d="M312.58,186.57c6.85,4.32,14.04,4.59,21.31,3.89l13.79-28.69c0.6-1.24,1.65-2.15,2.96-2.55
				c1.31-0.4,2.73-0.25,4,0.43c0.68,0.36,1.27,0.86,1.75,1.46c1.02,1.28,1.43,2.92,1.15,4.44c4.01,4.26,9.15,6.47,14.79,8.07
				c0.44-5.37,0.89-10.74,1.33-16.11c0.05-0.63-0.39-1.51-0.99-1.91c-18.17-12.16-38.77,5-56.99-6.48l0.08-1.03
				c0.08-1-0.66-1.92-1.65-2.06s-1.87,0.56-1.95,1.56l-7.21,87.28c-0.04,0.5,0.12,0.98,0.42,1.35c0.3,0.37,0.73,0.64,1.23,0.71
				c0.99,0.14,1.87-0.56,1.95-1.56L312.58,186.57z"/>
			<path class="st1" d="M406.11,194.45c0.27-0.56,0.15-1.52-0.29-2.1c-0.19-0.25-0.38-0.5-0.57-0.74
				c-8.37-10.47-21.4-11.23-33.22-14.52c-6.93-1.93-13.44-4.73-18.34-10.87c-0.04-0.04-0.07-0.09-0.11-0.13l0.44-0.91
				c0.31-0.65,0.19-1.42-0.25-1.98c-0.16-0.2-0.36-0.38-0.61-0.5c-0.9-0.48-1.98-0.15-2.4,0.73l-12.77,26.55l-24.45,50.87
				c-0.21,0.44-0.22,0.94-0.07,1.39c0.07,0.21,0.18,0.41,0.32,0.58c0.16,0.2,0.36,0.38,0.61,0.5c0.9,0.48,1.98,0.15,2.4-0.73
				l20.81-43.28c0.03,0.04,0.07,0.09,0.11,0.13c13.27,16.61,38.29,8.78,51.56,25.39c0.19,0.24,0.38,0.49,0.57,0.74
				c0.01,0.02,0.02,0.03,0.04,0.05c0.43,0.54,0.96,0.57,1.23,0.03C396.11,215.24,401.11,204.85,406.11,194.45z"/>
		</g>
	</g>
	<path class="st0" d="M281.53,193.85L281.53,193.85L281.53,193.85l-95.52,33.14l14.57,122.88l80.95,43.62l0,0l0,0l80.95-43.62
		l14.57-122.88L281.53,193.85z"/>
	<path d="M281.53,198.77L281.53,198.77L281.53,198.77l-88.19,31.51l13.45,116.82l74.74,41.47l0,0l0,0l74.74-41.47l13.45-116.82
		L281.53,198.77z"/>
	<g class="st2">
		<polygon class="st3" points="377.05,226.99 362.48,349.87 281.53,393.49 281.53,193.85 		"/>
	</g>
	<g>
		<path class="st4" d="M392.68,316.8c-2.86,5.86-3.6,13.11-12.43,14.75c-2.61,0.49-5.35,3.42-8.88,2.9
			c-8.65-1.27-16.31-4.83-22.06-11.36c-2.32-2.64-3.9-2.46-6.62-1.46c-43.6,15.94-87.22,31.81-130.84,47.68
			c-8.74,3.18-9.1,4.17-4.77,12.33c0.73,1.38,1.5,2.14,2.93,1.36c4.6-2.51,5.21,0.9,6.33,4c3.77,10.52,3.77,10.37-6.67,14.35
			c-3.08,1.17-4.61,0.96-5.5-2.42c-0.42-1.59-0.5-4.44-3.43-3.41c-2.87,1.01-1.37,3.27-0.57,4.78c1.69,3.2,0.45,4.37-2.58,5.48
			c-10.68,3.94-10.65,4.04-14.47-6.47c-0.16-0.45-0.24-0.95-0.47-1.36c-1.7-3.1-1.06-4.99,2.6-5.86c1.49-0.36,3.55-0.6,3.1-3.33
			c-1.16-7.1-3.09-8.39-9.87-6.21c-0.76,0.24-1.53,0.48-2.3,0.67c-2.83,0.7-5.34-0.26-6.62-2.63c-1.39-2.6,0.01-4.99,2.27-6.62
			c1.14-0.82,2.51-1.37,3.85-1.87c12.15-4.5,24.3-8.97,36.47-13.43c41.9-15.34,83.78-30.71,125.72-45.94
			c3.36-1.22,5.17-2.62,5.35-6.55c0.32-7.23,3.42-13.63,7.88-19.21c2.74-3.43,5.72-7.15,11.19-5.36c0.58,0.19,1.73-0.22,2.1-0.73
			c2.2-2.98,5.12-2.17,7.87-1.49c14.03,3.45,21.9,13.65,21.73,28.83C394.1,310.6,394.1,313.89,392.68,316.8z M384.06,312.86
			c-0.25-0.92-0.39-1.95-0.9-2.71c-2.93-4.38-4.43-9.08-5.32-14.38c-1.2-7.19-6.16-10.2-11.78-8.69c-6.14,1.65-10.65,9.4-9.07,15.41
			c0.55,2.09,1.16,2.63,3.56,1.84c3.23-1.07,7.01-1.17,8.4,3.01c1.27,3.83-1.29,6.02-4.53,7.19c-2.7,0.98-2.55,2.22-1.13,4.22
			c2.47,3.47,7.67,6.25,11.83,6.13C382.03,324.66,385.84,319.56,384.06,312.86z"/>
	</g>
	<g>
		<path class="st4" d="M169.06,308.21c-0.16-15.18,7.71-25.37,21.73-28.83c2.75-0.68,5.67-1.49,7.87,1.49
			c0.38,0.51,1.52,0.92,2.1,0.73c5.48-1.79,8.45,1.93,11.19,5.36c4.46,5.58,7.56,11.98,7.88,19.21c0.18,3.93,1.99,5.33,5.35,6.55
			c41.93,15.23,83.82,30.6,125.72,45.94c12.16,4.45,24.32,8.93,36.47,13.43c1.33,0.49,2.71,1.04,3.85,1.87
			c2.26,1.63,3.67,4.02,2.27,6.62c-1.27,2.38-3.79,3.33-6.62,2.63c-0.78-0.19-1.54-0.42-2.3-0.67c-6.78-2.18-8.71-0.89-9.87,6.21
			c-0.45,2.72,1.61,2.97,3.1,3.33c3.65,0.88,4.3,2.76,2.6,5.86c-0.23,0.41-0.3,0.91-0.47,1.36c-3.82,10.52-3.79,10.42-14.47,6.47
			c-3.02-1.11-4.27-2.28-2.58-5.48c0.8-1.51,2.3-3.77-0.57-4.78c-2.93-1.03-3.01,1.82-3.43,3.41c-0.89,3.38-2.42,3.59-5.5,2.42
			c-10.44-3.97-10.44-3.83-6.67-14.35c1.11-3.1,1.73-6.51,6.33-4c1.43,0.78,2.2,0.02,2.93-1.36c4.33-8.16,3.97-9.15-4.77-12.33
			c-43.62-15.87-87.25-31.74-130.84-47.68c-2.72-0.99-4.3-1.17-6.62,1.46c-5.75,6.53-13.41,10.09-22.06,11.36
			c-3.53,0.52-6.26-2.41-8.88-2.9c-8.83-1.65-9.56-8.9-12.43-14.75C168.96,313.89,168.96,310.6,169.06,308.21z M187.95,324.88
			c4.16,0.13,9.36-2.65,11.83-6.13c1.42-2,1.57-3.24-1.13-4.22c-3.24-1.17-5.8-3.36-4.53-7.19c1.39-4.18,5.17-4.08,8.4-3.01
			c2.4,0.79,3.01,0.25,3.56-1.84c1.58-6.01-2.94-13.76-9.07-15.41c-5.62-1.51-10.58,1.5-11.78,8.69c-0.89,5.3-2.39,9.99-5.32,14.38
			c-0.51,0.77-0.66,1.79-0.9,2.71C177.23,319.56,181.03,324.66,187.95,324.88z"/>
	</g>
	<path class="st1" d="M233.16,253.61c0,0,13.49-34.25,47.26-34.25c33.78,0,49.53,34.37,49.53,34.37s-3.22,9.31-2.15,16.23
		c1.07,6.92,4.65,13.72,4.65,13.72s-1.07,6.09-3.94,10.98c-2.86,4.89-6.68,9.91-6.68,9.91l-10.62,0.24c0,0-1.91-0.24-3.1,1.07
		c-1.19,1.31-1.43,4.06-1.43,4.06v7.88h-7.16v-2.39c0,0,0.12-1.19-0.95-1.19c-1.07,0-1.07,1.07-1.07,1.07v2.51h-6.56v-2.39
		c0,0,0.12-1.19-0.95-1.19c-1.07,0-1.07,1.07-1.07,1.07v2.51h-6.56v-2.39c0,0,0.12-1.19-0.96-1.19c-1.07,0-1.07,1.07-1.07,1.07v2.51
		h-6.56v-2.39c0,0,0.12-1.19-0.95-1.19c-1.07,0-1.07,1.07-1.07,1.07v2.51h-6.56v-2.39c0,0,0.12-1.19-0.95-1.19
		c-1.07,0-1.07,1.07-1.07,1.07v2.51h-6.92l0.04-8.55c0,0,0.24-1.91-0.95-2.86c-1.19-0.95-4.14-1.59-4.14-1.59l-9.87-0.24
		c0,0-3.82-4.06-6.05-8.43c-2.23-4.38-4.61-12.65-4.61-12.65s3.66-5.97,4.22-14.32C235.38,260.82,233.16,253.61,233.16,253.61z
		 M245.65,276.49c0,0-1.75,1.59-1.51,2.47c0.24,0.87,4.22,6.21,6.44,8.35c2.23,2.15,5.17,4.77,7.96,4.53
		c2.78-0.24,3.74-2.07,9.95-4.69c7.49-3.17,9.31-1.19,9.55-2.39c0.24-1.19-6.84-5.17-14.32-8.35s-11.7-4.3-11.7-4.3
		s-0.95-0.48-1.99-0.24c-1.03,0.24-1.91,1.59-1.91,1.59L245.65,276.49z M273.81,302.98l5.45-0.04c0,0,0.56-0.08,1.11-0.72
		c0.56-0.64,0.72-2.23,0.72-2.23l0.36-4.34c0,0,0.24-0.72,0.56-0.72c0.32,0,0.4,0.8,0.4,0.8l0.56,4.54c0,0,0.08,1.43,0.72,2.07
		c0.64,0.64,1.91,0.56,1.91,0.56h5.01c0,0,1.67,0.16,1.59-0.88c-0.08-1.03-2.23-4.85-3.42-6.21c-1.19-1.35-3.34-4.14-3.34-4.14
		s-2.22-1.85-1.19-2.63c0.95-0.72,3.9-1.51,6.92-1.43c3.02,0.08,7.16,1.59,9.79,2.86c2.63,1.27,3.98,2.62,6.37,2.47
		c2.39-0.16,5.17-2.47,7.24-4.38c2.07-1.91,6.44-5.17,6.84-8.04c0.4-2.86-3.26-6.52-4.85-7.16c-2.47-0.8-12.41,1.11-18.94,3.74
		c-6.52,2.63-12.01,4.85-18.54,12.65c-6.52,7.8-6.92,11.46-6.92,11.46s-0.32,0.96,0.4,1.35
		C273.26,302.98,273.81,302.98,273.81,302.98z"/>
	<g>
	</g>
	<g>
		<path d="M348.38,192.5l1.07-1.57l4.57-1.33c0.9-0.26,1.65-0.5,2.25-0.72c0.6-0.23,1.08-0.45,1.47-0.67
			c0.38-0.22,0.67-0.45,0.88-0.68c0.21-0.24,0.37-0.49,0.5-0.78c0.16-0.36,0.18-0.71,0.08-1.04c-0.11-0.33-0.38-0.59-0.83-0.79
			c-0.46-0.2-0.95-0.3-1.46-0.28s-1.05,0.1-1.63,0.25l-0.44-1.98c0.81-0.21,1.61-0.31,2.41-0.3c0.8,0.01,1.58,0.18,2.35,0.52
			c0.5,0.22,0.93,0.48,1.29,0.79c0.36,0.31,0.63,0.65,0.82,1.02c0.19,0.37,0.29,0.77,0.29,1.2c0.01,0.43-0.09,0.87-0.29,1.32
			c-0.19,0.43-0.43,0.83-0.73,1.18c-0.3,0.36-0.69,0.69-1.17,0.99c-0.48,0.31-1.07,0.59-1.76,0.85c-0.7,0.27-1.53,0.52-2.51,0.78
			l-2.74,0.74l4.89,2.14l-1.29,1.85L348.38,192.5z"/>
		<path d="M362.33,198.86c-0.54-0.23-0.99-0.53-1.35-0.89c-0.37-0.36-0.63-0.78-0.8-1.25s-0.22-1.01-0.17-1.6
			c0.05-0.59,0.23-1.23,0.53-1.93c0.21-0.49,0.49-1.01,0.83-1.56c0.34-0.56,0.73-1.09,1.18-1.61c0.45-0.52,0.95-0.99,1.5-1.42
			c0.55-0.43,1.14-0.76,1.78-1.01c0.64-0.24,1.31-0.36,2.03-0.36c0.71,0,1.46,0.17,2.23,0.51c0.53,0.23,0.98,0.53,1.35,0.89
			c0.37,0.36,0.64,0.78,0.8,1.25c0.16,0.48,0.22,1.01,0.17,1.6c-0.05,0.59-0.23,1.23-0.53,1.93c-0.21,0.49-0.49,1.01-0.83,1.56
			c-0.34,0.55-0.73,1.09-1.18,1.61c-0.45,0.52-0.95,0.99-1.49,1.42c-0.55,0.43-1.14,0.77-1.77,1.01c-0.63,0.24-1.31,0.36-2.02,0.37
			C363.85,199.37,363.11,199.2,362.33,198.86z M363.45,197.22c0.31,0.14,0.63,0.2,0.96,0.19s0.65-0.08,0.98-0.21
			c0.33-0.13,0.65-0.31,0.96-0.53c0.32-0.23,0.63-0.49,0.92-0.78c0.3-0.29,0.58-0.61,0.85-0.96c0.27-0.34,0.52-0.7,0.75-1.06
			l-6.34,0.97c-0.17,0.6-0.18,1.09-0.02,1.49C362.67,196.71,362.98,197.01,363.45,197.22z M368.97,189.38
			c-0.47-0.21-0.95-0.25-1.45-0.13c-0.5,0.12-0.99,0.34-1.46,0.68c-0.48,0.33-0.93,0.75-1.36,1.24c-0.43,0.49-0.81,1.01-1.14,1.55
			l6.33-0.96c0.17-0.59,0.18-1.08,0.02-1.48S369.44,189.59,368.97,189.38z"/>
		<path d="M368.68,201.4l1.08-1.57l4.57-1.33c0.9-0.26,1.65-0.5,2.25-0.72c0.6-0.23,1.08-0.45,1.46-0.67
			c0.38-0.22,0.67-0.45,0.88-0.68c0.21-0.24,0.37-0.49,0.5-0.78c0.16-0.36,0.18-0.71,0.08-1.04c-0.11-0.33-0.38-0.59-0.83-0.79
			c-0.46-0.2-0.95-0.3-1.46-0.28c-0.51,0.02-1.05,0.1-1.63,0.25l-0.45-1.98c0.81-0.21,1.61-0.31,2.41-0.3
			c0.8,0.01,1.58,0.18,2.35,0.52c0.5,0.22,0.93,0.48,1.29,0.79c0.36,0.31,0.63,0.65,0.82,1.02s0.29,0.77,0.29,1.2
			c0.01,0.43-0.09,0.87-0.29,1.32c-0.19,0.43-0.43,0.83-0.73,1.18c-0.3,0.36-0.69,0.69-1.17,0.99c-0.48,0.31-1.07,0.59-1.77,0.85
			c-0.7,0.27-1.53,0.52-2.51,0.78l-2.74,0.74l4.89,2.14l-1.29,1.85L368.68,201.4z"/>
		<path d="M382.63,207.76c-0.54-0.23-0.99-0.53-1.35-0.89c-0.37-0.36-0.63-0.77-0.8-1.25c-0.17-0.48-0.22-1.01-0.17-1.6
			c0.05-0.59,0.23-1.23,0.54-1.93c0.21-0.49,0.49-1.01,0.83-1.56c0.34-0.56,0.73-1.09,1.18-1.61c0.45-0.52,0.95-0.99,1.5-1.42
			c0.55-0.43,1.14-0.76,1.78-1.01c0.64-0.24,1.31-0.36,2.02-0.36s1.46,0.17,2.23,0.51c0.53,0.23,0.98,0.53,1.35,0.89
			c0.37,0.36,0.64,0.78,0.8,1.25c0.16,0.48,0.22,1.01,0.17,1.6c-0.05,0.59-0.23,1.23-0.53,1.93c-0.21,0.49-0.49,1.01-0.83,1.56
			c-0.34,0.55-0.73,1.09-1.18,1.61c-0.45,0.52-0.95,0.99-1.5,1.42c-0.55,0.43-1.14,0.77-1.77,1.01c-0.63,0.24-1.31,0.36-2.02,0.37
			C384.15,208.27,383.41,208.1,382.63,207.76z M383.75,206.11c0.31,0.14,0.63,0.2,0.96,0.19c0.33-0.01,0.65-0.08,0.98-0.21
			c0.33-0.13,0.65-0.31,0.96-0.53c0.32-0.23,0.63-0.49,0.92-0.78c0.3-0.29,0.58-0.61,0.85-0.96c0.27-0.34,0.52-0.7,0.75-1.06
			l-6.35,0.97c-0.17,0.6-0.18,1.09-0.02,1.49S383.28,205.91,383.75,206.11z M389.27,198.28c-0.47-0.21-0.95-0.25-1.45-0.13
			c-0.5,0.12-0.99,0.35-1.46,0.68c-0.48,0.34-0.93,0.75-1.36,1.24c-0.43,0.49-0.81,1.01-1.14,1.55l6.33-0.97
			c0.17-0.59,0.18-1.08,0.02-1.48C390.05,198.78,389.74,198.48,389.27,198.28z"/>
	</g>
</g>
<g>
</g>
<g>
</g>
<g>
</g>
<g>
</g>
<g>
</g>
</svg>
